<svg height="512pt" viewBox="0 0 512 512" width="512pt" xmlns="http://www.w3.org/2000/svg"><path d="m512 256c0 141.386719-114.613281 256-256 256s-256-114.613281-256-256 114.613281-256 256-256 256 114.613281 256 256zm0 0" fill="#19cffc"/><path d="m512 256c0-18.738281-2.03125-37-5.855469-54.59375l-72.074219-72.078125-392.117187 110.066406 96.023437 96.019531-20.347656 61.058594 114.402344 114.402344c7.890625.730469 15.882812 1.125 23.96875 1.125 141.386719 0 256-114.613281 256-256zm0 0" fill="#1ea1e3"/><path d="m106.160156 265.765625 11.464844 130.703125 316.441406-267.140625zm0 0" fill="#828282"/><path d="m255.59375 203.585938v76.410156l178.472656-150.667969zm0 0" fill="#5a5a5a"/><path d="m434.066406 129.328125-301.535156 154.78125 165.101562 81.402344zm0 0" fill="#fff"/><path d="m434.066406 129.328125-178.472656 91.609375v123.847656l42.039062 20.726563zm0 0" fill="#e9edf5"/><path d="m434.066406 129.328125-327.90625 136.4375-64.207031-26.371094zm0 0" fill="#fff"/><path d="m255.59375 179.425781v24.160157l178.472656-74.257813zm0 0" fill="#e9edf5"/><path d="m132.53125 284.109375-14.90625 112.359375 89.519531-75.570312zm0 0" fill="#bebebe"/></svg>