<svg id="Capa_1" enable-background="new 0 0 551.13 551.13" height="512" viewBox="0 0 551.13 551.13" width="512" xmlns="http://www.w3.org/2000/svg"><path d="m413.348 137.783h-139.149c-28.639-21.285-63.631-34.446-101.97-34.446-94.962 0-172.229 77.267-172.229 172.228s77.267 172.228 172.228 172.228c38.339 0 73.332-13.161 101.97-34.446h139.149c75.972 0 137.783-61.794 137.783-137.783s-61.81-137.781-137.782-137.781zm-378.902 137.782c0-75.989 61.81-137.783 137.783-137.783s137.783 61.794 137.783 137.783-61.812 137.783-137.784 137.783-137.782-61.794-137.782-137.783zm378.902 103.337h-104.218c21.859-28.874 35.326-64.415 35.326-103.337s-13.468-74.463-35.326-103.337h104.218c56.983 0 103.337 46.353 103.337 103.337s-46.354 103.337-103.337 103.337z"/></svg>