<svg id="Capa_1" enable-background="new 0 0 551.13 551.13" height="512" viewBox="0 0 551.13 551.13" width="512" xmlns="http://www.w3.org/2000/svg"><path d="m378.902 103.337c-38.425 0-73.588 13.09-102.271 34.446h-138.848c-75.973 0-137.783 61.793-137.783 137.782s61.81 137.783 137.783 137.783h138.848c28.683 21.356 63.846 34.446 102.271 34.446 94.961 0 172.228-77.267 172.228-172.228s-77.267-172.229-172.228-172.229zm-344.456 172.228c0-56.983 46.353-103.337 103.337-103.337h104.217c-21.859 28.874-35.326 64.415-35.326 103.337s13.468 74.463 35.326 103.337h-104.217c-56.984 0-103.337-46.354-103.337-103.337zm344.456 137.783c-75.972 0-137.783-61.794-137.783-137.783s61.81-137.783 137.783-137.783 137.783 61.794 137.783 137.783-61.811 137.783-137.783 137.783z"/></svg>